<svg viewBox="0 0 156 156" fill="none" xmlns="http://www.w3.org/2000/svg"><path d="M78.03 0C35.25 0 .25 35.1.25 78s35 78 77.78 78c42.778 0 77.778-35.1 77.778-78s-35-78-77.779-78zm0 144c-36.198 0-65.814-29.7-65.814-66s29.616-66 65.813-66 65.813 29.7 65.813 66-29.616 66-65.813 66z" fill="#00BBE0"/><path d="M76.59 58.792l-2.143 13.249c3.735.607 15.326 3.391 16.541-4.105 1.264-7.819-10.662-8.537-14.397-9.144zM73.363 78.73l-2.365 14.608c4.485.725 18.402 3.952 19.731-4.288 1.391-8.594-12.88-9.59-17.366-10.32z" fill="#00BBE0"/><path d="M78.027 22.963c-30.31 0-54.883 24.641-54.883 55.038 0 30.398 24.573 55.039 54.883 55.039 30.311 0 54.883-24.642 54.883-55.038 0-30.397-24.572-55.04-54.883-55.04zm25.563 69.521c-2.662 10.319-10.902 11.863-22.13 10.693l-1.783 11.005-6.617-1.076 1.76-10.858a249.942 249.942 0 0 1-5.278-.91l-1.764 10.909-6.61-1.077 1.78-11.026c-1.545-.262-3.117-.546-4.72-.808l-8.61-1.401 2.596-7.71s4.883.872 4.81.783c1.873.302 2.587-.966 2.842-1.793l4.832-29.864c-.036-1.388-.656-3.09-3.336-3.527.096-.077-4.805-.779-4.805-.779l1.145-7.087 9.125 1.488-.004.034c1.372.222 2.783.424 4.22.628L72.81 39.21l6.613 1.076-1.73 10.685a270.9 270.9 0 0 1 5.296.79l1.717-10.615 6.617 1.076-1.764 10.902c8.42 2.14 14.759 5.875 14.241 13.857-.37 5.842-3.327 8.904-7.48 10.239 6.069 2.548 9.417 6.956 7.271 15.264z" fill="#00BBE0"/></svg>
